<svg width="61" height="19" viewBox="0 0 61 19" fill="none" xmlns="http://www.w3.org/2000/svg">
<path d="M45.4751 4.5H56.6821V15.3804H45.4751V4.5Z" fill="#023B60"/>
<path d="M8.67806 8.08741C9.14761 8.32932 9.53494 8.70386 9.79143 9.16406C10.0583 9.63645 10.1924 10.2011 10.1936 10.858V14.1734C10.1936 14.3776 10.0273 14.5431 9.82218 14.5431C9.61705 14.5431 9.45076 14.3776 9.45076 14.1734V10.8584C9.45076 10.078 9.22995 9.48261 8.78834 9.07204C8.34673 8.66148 7.77118 8.45619 7.06169 8.45619C6.64951 8.45116 6.2414 8.5378 5.86715 8.70978C5.52596 8.86344 5.23291 9.10617 5.01911 9.41221C4.8156 9.70312 4.70753 10.0496 4.70974 10.4041V14.1734C4.71309 14.2712 4.67752 14.3664 4.61075 14.4383C4.5392 14.5103 4.44011 14.5484 4.3385 14.5429C4.23923 14.5459 4.14314 14.5079 4.07298 14.4379C4.00282 14.368 3.96483 14.2722 3.96798 14.1734V5.28928C3.96252 5.18815 4.0008 5.08952 4.07317 5.01831C4.14534 4.95185 4.24096 4.91644 4.33923 4.91978C4.44015 4.91092 4.53984 4.947 4.61148 5.0183C4.68312 5.08961 4.71937 5.18883 4.71047 5.28928V8.81194C4.9877 8.46948 5.33888 8.19361 5.73795 8.00481C6.15169 7.80964 6.60457 7.71054 7.06241 7.715C7.6649 7.71597 8.20345 7.8401 8.67806 8.08741Z" fill="#023B60"/>
<path d="M17.5654 7.94476C17.6342 8.01646 17.67 8.11247 17.6644 8.21054V14.0968C17.6678 14.1927 17.6322 14.286 17.5654 14.3565C17.4939 14.4272 17.3948 14.4645 17.2932 14.4592C17.1938 14.4623 17.0975 14.4251 17.0272 14.3564C16.9569 14.2878 16.9188 14.1938 16.922 14.0968V13.4675C16.6447 13.8033 16.2936 14.0739 15.8946 14.2592C15.4809 14.4507 15.028 14.5479 14.5702 14.5434C13.9678 14.5434 13.4294 14.4226 12.955 14.181C12.4849 13.9436 12.0973 13.5757 11.841 13.1235C11.5727 12.659 11.4386 12.105 11.4388 11.4614V8.2109C11.4388 8.01064 11.6051 7.84829 11.8102 7.84829C12.0154 7.84829 12.1816 8.01064 12.1816 8.2109V11.4617C12.1816 12.2271 12.4024 12.8111 12.844 13.2138C13.2856 13.6165 13.8611 13.8178 14.5706 13.8178C14.9827 13.8229 15.3908 13.7379 15.765 13.5691C16.106 13.4188 16.3989 13.1811 16.6126 12.8812C16.8161 12.5959 16.9242 12.256 16.922 11.9084V8.2109C16.9165 8.1117 16.9548 8.01496 17.0272 7.94512C17.0993 7.8799 17.1949 7.84516 17.2932 7.84847C17.3936 7.84294 17.492 7.87773 17.5654 7.94476Z" fill="#023B60"/>
<path d="M27.6648 8.21029C28.0513 8.45713 28.3597 8.80691 28.5549 9.21955C28.7662 9.65074 28.8718 10.1402 28.8718 10.688V14.1806C28.8751 14.2765 28.8401 14.3699 28.7743 14.4403C28.7038 14.511 28.6062 14.5484 28.5061 14.5431C28.4083 14.5461 28.3134 14.5089 28.2442 14.4403C28.1749 14.3716 28.1374 14.2776 28.1405 14.1806V10.6865C28.1405 10.0663 27.9739 9.5587 27.6408 9.16376C27.3077 8.76882 26.881 8.57135 26.3607 8.57135C25.7917 8.57135 25.3325 8.75662 24.9831 9.12716C24.6337 9.49769 24.4672 9.98918 24.4834 10.6016V14.1806C24.4867 14.2765 24.4517 14.3699 24.3859 14.4403C24.3154 14.511 24.2179 14.5484 24.1178 14.5431C24.0199 14.5461 23.9251 14.5089 23.8558 14.4403C23.7865 14.3716 23.749 14.2776 23.7521 14.1806V10.6865C23.7521 10.0663 23.5856 9.5587 23.2524 9.16376C22.9193 8.76882 22.4926 8.57135 21.9723 8.57135C21.4115 8.57135 20.9523 8.74904 20.5947 9.10441C20.2372 9.45979 20.058 9.91905 20.057 10.4822V14.1806C20.0603 14.2765 20.0253 14.3699 19.9595 14.4403C19.8891 14.511 19.7915 14.5484 19.6914 14.5431C19.5935 14.5461 19.4987 14.5089 19.4294 14.4403C19.3602 14.3716 19.3226 14.2776 19.3258 14.1806V8.29381C19.3204 8.19459 19.3581 8.09784 19.4294 8.02799C19.5004 7.96276 19.5946 7.92801 19.6914 7.93133C19.7908 7.92264 19.889 7.95803 19.9595 8.02798C20.0301 8.09793 20.0658 8.19526 20.057 8.29381V8.76503C20.2811 8.47853 20.5691 8.24741 20.8984 8.08982C21.2325 7.92849 21.5996 7.8458 21.9713 7.84817C22.4183 7.8415 22.858 7.96092 23.2392 8.19252C23.6156 8.42487 23.9228 8.75237 24.1292 9.14137C24.3399 8.74752 24.6564 8.41913 25.0437 8.19252C25.4426 7.96058 25.898 7.84147 26.3604 7.84817C26.8479 7.84698 27.2827 7.96769 27.6648 8.21029Z" fill="#023B60"/>
<path fill-rule="evenodd" clip-rule="evenodd" d="M36.3247 9.48888C36.0429 8.9854 35.63 8.56912 35.1307 8.285C34.6237 7.99337 34.0613 7.84767 33.4437 7.8479C32.8179 7.8479 32.2516 7.9936 31.7448 8.285C31.2454 8.56901 30.8325 8.98532 30.5508 9.48888C30.2618 10.0001 30.1172 10.571 30.1172 11.2017C30.117 11.8247 30.2615 12.3916 30.5508 12.9026C30.8324 13.4062 31.2453 13.8226 31.7448 14.1065C32.2516 14.3979 32.8179 14.5436 33.4437 14.5436C34.0059 14.5438 34.5148 14.422 34.9703 14.1783C35.4113 13.9482 35.7827 13.6027 36.0456 13.178V14.1135C36.0426 14.2097 36.0791 14.3029 36.1466 14.3709C36.2141 14.439 36.3065 14.4758 36.4019 14.4728C36.4995 14.478 36.5946 14.441 36.6632 14.371C36.7273 14.3011 36.7615 14.2086 36.7583 14.1135V11.2017C36.7583 10.571 36.6137 10.0001 36.3247 9.48888ZM35.7053 12.5673C35.4872 12.9668 35.1646 13.2983 34.7726 13.5257H34.7743C33.9467 13.9888 32.9407 13.9888 32.113 13.5257C31.7201 13.2974 31.3958 12.9663 31.1744 12.5673C30.715 11.7158 30.715 10.6877 31.1744 9.8362C31.5202 9.22243 32.0962 8.77455 32.7729 8.5932C33.4495 8.41184 34.1701 8.51224 34.7726 8.87183C35.164 9.10263 35.4863 9.43584 35.7053 9.8362C36.1568 10.6897 36.1568 11.7138 35.7053 12.5673Z" fill="#023B60"/>
<path d="M42.7138 8.2132C43.1837 8.45066 43.5713 8.81845 43.8277 9.27031C44.0946 9.7335 44.2286 10.2872 44.2299 10.9313V14.1807C44.2299 14.3809 44.0636 14.5432 43.8585 14.5432C43.6534 14.5432 43.4871 14.3809 43.4871 14.1807V10.9302C43.4871 10.1651 43.2663 9.58123 42.8248 9.17866C42.3832 8.77609 41.8077 8.5748 41.0983 8.5748C40.6862 8.56987 40.2781 8.65482 39.9039 8.82345C39.5628 8.97412 39.2697 9.21213 39.056 9.5122C38.8525 9.79745 38.7444 10.1372 38.7466 10.4848V14.1807C38.75 14.2766 38.7144 14.37 38.6477 14.4404C38.5761 14.511 38.477 14.5484 38.3754 14.5431C38.2761 14.5461 38.1798 14.509 38.1095 14.4403C38.0392 14.3717 38.0011 14.2777 38.0042 14.1807V8.29667C37.9988 8.1975 38.0371 8.1008 38.1094 8.03098C38.1816 7.96578 38.2772 7.93105 38.3754 7.93436C38.4764 7.92567 38.576 7.96105 38.6477 8.03097C38.7193 8.10089 38.7555 8.19817 38.7466 8.29667V8.92362C39.0238 8.58784 39.375 8.31733 39.774 8.13221C40.1877 7.94083 40.6405 7.84367 41.0983 7.84804C41.7007 7.84899 42.2392 7.97071 42.7138 8.2132Z" fill="#023B60"/>
<path d="M46.07 14.3588C45.9516 14.2391 45.8867 14.0744 45.8905 13.9037V5.57427C45.8846 5.40141 45.9498 5.23397 46.07 5.11301C46.2478 4.92374 46.5204 4.8663 46.7563 4.96844C46.9921 5.07057 47.1426 5.31127 47.1351 5.57427V13.9037C47.1392 14.0732 47.0767 14.2373 46.9616 14.3588C46.7126 14.605 46.319 14.605 46.07 14.3588Z" fill="white"/>
<path fill-rule="evenodd" clip-rule="evenodd" d="M48.381 13.9026C48.3771 14.0735 48.4425 14.2385 48.5617 14.3585C48.6792 14.4806 48.841 14.5475 49.0085 14.5433H51.1898C52.0977 14.5433 52.9051 14.3379 53.6121 13.9272C54.3092 13.5267 54.8815 12.9329 55.263 12.2143C55.6559 11.483 55.8522 10.6532 55.852 9.7248C55.8517 8.7964 55.6548 7.96862 55.2613 7.24146C54.8783 6.52555 54.3062 5.93413 53.6104 5.53468C52.9033 5.124 52.0959 4.91865 51.1881 4.91865H49.0074C48.8414 4.91444 48.6807 4.97885 48.5617 5.0973C48.4406 5.21847 48.375 5.38618 48.381 5.55933V13.9026ZM52.9775 12.9416C52.4514 13.2537 51.855 13.4097 51.1881 13.4097L49.6336 13.4105V6.05431H51.1881C51.8547 6.05431 52.4512 6.21037 52.9775 6.5225C53.4994 6.83006 53.9255 7.28232 54.2067 7.82704C54.4999 8.38582 54.6465 9.01852 54.6465 9.72514C54.6465 10.4318 54.4999 11.0664 54.2067 11.6291C53.9273 12.1771 53.5009 12.6324 52.9775 12.9416Z" fill="white"/>
</svg>
