<svg width="29" height="32" viewBox="0 0 29 32" fill="none" xmlns="http://www.w3.org/2000/svg">
<path fill-rule="evenodd" clip-rule="evenodd" d="M14.3731 31.9279C14.3731 31.9279 -3.20427 25.3456 0.51735 4.33689C0.51735 4.33689 6.21734 0.922304 14.4284 0.0720825C22.6395 0.922304 28.2358 4.33689 28.2358 4.33689C31.962 25.3325 14.395 31.9197 14.3731 31.9279ZM16.8897 5.54053C16.6575 5.77282 16.317 5.86315 15.9987 5.77682C15.475 5.64133 14.9351 5.57676 14.3939 5.58482V3.77465C15.0889 3.76752 15.782 3.8505 16.4553 4.02151C16.776 4.09847 17.03 4.34068 17.12 4.65529C17.21 4.96996 17.122 5.30825 16.8897 5.54053ZM19.28 6.45987C19.6492 6.13474 20.2125 6.16017 20.5505 6.51726C21.8224 7.94661 22.545 9.77487 22.5911 11.6803L22.5842 20.9367C22.5879 21.1755 22.4948 21.4057 22.3257 21.5759C22.1567 21.746 21.9258 21.8418 21.6849 21.8417C21.4427 21.842 21.2103 21.7467 21.0391 21.5769C20.8678 21.4071 20.7717 21.1768 20.7718 20.9367L20.7787 11.694C20.7309 10.2254 20.1683 8.81914 19.1877 7.71717C18.8698 7.34249 18.9107 6.78501 19.28 6.45987ZM14.4008 7.38803L14.3939 9.1913H14.4077C15.9165 9.19207 17.1393 10.4042 17.1401 11.8997C17.1401 12.3995 17.5489 12.8047 18.0532 12.8047C18.5575 12.8047 18.9664 12.3995 18.9664 11.8997C18.9587 9.40572 16.9169 7.38798 14.4008 7.38803ZM9.81449 17.4351C9.81449 17.4019 9.81587 17.37 9.81864 17.3393V13.7936C9.81864 13.2313 10.2268 12.772 10.7318 12.772C11.2367 12.772 11.6449 13.2313 11.6449 13.7922V21.9598C11.6449 21.9929 11.6434 22.0256 11.6407 22.0579V23.5336V23.5422C11.6395 25.0381 12.8571 26.2541 14.3662 26.2643L14.3662 26.2643C14.8103 26.259 15.2468 26.1485 15.639 25.942C15.9269 25.7913 16.274 25.8044 16.5496 25.9762C16.8252 26.1481 16.9874 26.4525 16.9751 26.775C16.9627 27.0975 16.7778 27.389 16.4899 27.5396C15.8434 27.8773 15.1245 28.056 14.3939 28.0606V28.0607L14.3809 28.0607H14.38C11.9127 28.0467 9.88289 26.0865 9.82278 23.6467C9.81731 23.5977 9.81449 23.5495 9.81449 23.5025V17.4351ZM18.0394 24.8245C18.5444 24.8245 18.9525 24.3651 18.9525 23.8029V15.6366C18.9525 15.0744 18.5444 14.615 18.0394 14.615C17.5344 14.615 17.1263 15.0744 17.1263 15.6366V23.8029C17.1263 24.3651 17.5344 24.8245 18.0394 24.8245ZM14.3939 16.4183C14.6354 16.4201 14.8677 16.3263 15.0391 16.1576C15.2106 15.989 15.307 15.7595 15.307 15.5201V11.9066C15.3072 11.6665 15.211 11.4362 15.0398 11.2664C14.8684 11.0967 14.6361 11.0014 14.3939 11.0015V11.0084C14.1518 11.0047 13.9184 11.0979 13.7466 11.267C13.5747 11.436 13.4789 11.6666 13.4808 11.9066V15.5201C13.4806 15.7601 13.5768 15.9904 13.748 16.1602C13.9193 16.33 14.1516 16.4253 14.3939 16.4251V16.4183ZM14.3939 18.2285C14.8989 18.2285 15.307 18.5714 15.307 18.9965V23.5836C15.307 24.0018 14.8989 24.3446 14.3939 24.3446V18.2285ZM8.60392 6.15392C7.06013 7.67409 6.1934 9.74281 6.19661 11.8998C6.19661 12.3996 6.60542 12.8049 7.10973 12.8049C7.61404 12.8049 8.02286 12.3996 8.02286 11.8998C8.01871 10.2223 8.69112 8.61272 9.89058 7.42925C11.0873 6.24304 12.7406 5.59852 14.3939 5.58482V3.77465C12.2243 3.78731 10.1461 4.64137 8.60392 6.15392ZM10.7898 10.8782C10.3543 10.6282 10.2057 10.0756 10.4578 9.64393C11.269 8.24988 12.7702 7.39209 14.3939 7.395V9.19826C13.4206 9.19865 12.5215 9.71354 12.035 10.549C11.7829 10.9807 11.2253 11.1281 10.7898 10.8782ZM6.46386 14.8799C6.63517 14.7101 6.86753 14.6148 7.10973 14.615C7.61216 14.6195 8.01832 15.0221 8.02286 15.5201V20.9368C8.02286 21.4366 7.61404 21.8419 7.10973 21.8419C6.60542 21.8419 6.19661 21.4366 6.19661 20.9368V15.5201C6.19644 15.2799 6.2926 15.0496 6.46386 14.8799ZM13.4808 18.9896V23.5767C13.4808 24.0018 13.8889 24.3446 14.3939 24.3446V18.2285C13.8889 18.2285 13.4808 18.5714 13.4808 18.9896Z" fill="white"/>
</svg>
