<svg width="24" height="24" viewBox="0 0 24 24" fill="none" xmlns="http://www.w3.org/2000/svg">
<path d="M11.8284 21.6742C11.8284 21.6742 1.08352 17.6148 3.35852 4.65828C3.35852 4.65828 6.8429 2.55242 11.8623 2.02808L11.8284 21.6742Z" fill="#023B60"/>
<path d="M11.8284 21.6742C11.8284 21.6742 22.5818 17.6148 20.3026 4.65828C20.3026 4.65828 16.8816 2.55242 11.8623 2.02808L11.8284 21.6742Z" fill="#075070"/>
<path d="M15.6046 6.00295C15.398 5.78274 15.0537 5.76705 14.8279 5.96757C14.6022 6.16809 14.5772 6.51189 14.7715 6.74296C15.371 7.42258 15.7149 8.28983 15.7441 9.19556L15.7399 14.8957C15.7398 15.0438 15.7986 15.1858 15.9033 15.2905C16.008 15.3953 16.15 15.454 16.2981 15.4539C16.4453 15.4539 16.5865 15.3949 16.6898 15.2899C16.7931 15.185 16.8501 15.043 16.8478 14.8957L16.852 9.1871C16.8239 8.01199 16.3821 6.88447 15.6046 6.00295Z" fill="white"/>
<path d="M12.8222 5.5463C13.0167 5.59954 13.2249 5.54386 13.3668 5.4006C13.5088 5.25733 13.5626 5.0487 13.5076 4.85465C13.4526 4.6606 13.2973 4.51123 13.1013 4.46377C12.6897 4.35831 12.266 4.30713 11.8412 4.31154V5.4279C12.172 5.42292 12.502 5.46275 12.8222 5.5463Z" fill="white"/>
<path d="M11.8454 6.54004L11.8412 7.65217H11.8496C12.7719 7.65263 13.5194 8.40018 13.5199 9.32247C13.5199 9.63074 13.7698 9.88065 14.0781 9.88065C14.3864 9.88065 14.6363 9.63074 14.6363 9.32247C14.6316 7.78441 13.3835 6.54003 11.8454 6.54004V6.54004Z" fill="white"/>
<path d="M11.8411 19.2892L11.8327 18.1813H11.8242C10.9017 18.175 10.1574 17.425 10.1581 16.5025C10.1589 16.3039 10.0536 16.1199 9.88195 16.0199C9.71028 15.9199 9.49831 15.9191 9.32588 16.0178C9.15346 16.1165 9.04678 16.2996 9.04602 16.4983C9.04602 18.0375 10.3061 19.2849 11.8411 19.2892Z" fill="#DFEEF2"/>
<path d="M14.0696 10.9971C13.7609 10.9971 13.5114 11.2804 13.5114 11.6271V16.6634C13.5114 17.0102 13.7609 17.2935 14.0696 17.2935C14.3783 17.2935 14.6278 17.0102 14.6278 16.6634V11.6271C14.6278 11.2804 14.3783 10.9971 14.0696 10.9971Z" fill="white"/>
<path d="M9.60252 9.86035C9.29383 9.86035 9.04434 10.1437 9.04434 10.4904V15.5267C9.04434 15.8735 9.29383 16.1568 9.60252 16.1568C9.91121 16.1568 10.1607 15.8735 10.1607 15.5267V10.4896C10.1607 10.1437 9.91121 9.86035 9.60252 9.86035Z" fill="#DFEEF2"/>
<path d="M12.3993 11.5552V9.32673C12.3994 9.17866 12.3407 9.03662 12.236 8.93192C12.1313 8.82721 11.9892 8.76844 11.8412 8.76855V12.1092C11.9888 12.1103 12.1308 12.0524 12.2356 11.9484C12.3404 11.8444 12.3993 11.7029 12.3993 11.5552Z" fill="white"/>
<path d="M12.3993 16.5281V13.6992C12.3993 13.437 12.1498 13.2256 11.8412 13.2256V16.9975C12.1498 16.9975 12.3993 16.7861 12.3993 16.5281Z" fill="white"/>
<path d="M8.30176 5.77885C7.35807 6.71638 6.82825 7.99221 6.83021 9.32244C6.83021 9.63071 7.08011 9.88061 7.38838 9.88061C7.69666 9.88061 7.94656 9.63071 7.94656 9.32244C7.94402 8.28789 8.35509 7.29525 9.08829 6.56538C9.81984 5.83383 10.8305 5.43634 11.8411 5.42788V4.31152C10.5149 4.31932 9.24447 4.84602 8.30176 5.77885Z" fill="#DFEEF2"/>
<path d="M9.43504 7.93118C9.2809 8.19742 9.37178 8.5382 9.63801 8.69233C9.90425 8.84647 10.245 8.75559 10.3992 8.48936C10.6966 7.97409 11.2462 7.65656 11.8411 7.65632V6.54419C10.8486 6.54241 9.93091 7.07143 9.43504 7.93118Z" fill="#DFEEF2"/>
<path d="M11.8327 19.2893C12.2822 19.2877 12.7247 19.1775 13.1224 18.9679C13.2984 18.875 13.4115 18.6952 13.419 18.4964C13.4265 18.2975 13.3274 18.1097 13.1589 18.0037C12.9905 17.8978 12.7783 17.8897 12.6023 17.9826C12.3625 18.11 12.0957 18.1782 11.8242 18.1814" fill="white"/>
<path d="M7.38838 10.9971C7.24031 10.997 7.09827 11.0557 6.99356 11.1604C6.88886 11.2651 6.83009 11.4072 6.8302 11.5552V14.8959C6.8302 15.2041 7.0801 15.454 7.38838 15.454C7.69665 15.454 7.94655 15.2041 7.94655 14.8959V11.5552C7.9438 11.2481 7.6955 10.9998 7.38838 10.9971Z" fill="#DFEEF2"/>
<path d="M9.59995 12.2656C9.29127 12.2656 9.04178 12.3883 9.04178 12.7363V16.4782C9.04178 16.8266 9.29127 17.2875 9.59995 17.2875C9.90864 17.2875 10.1581 17.0084 10.1581 16.66V12.7409C10.1581 12.3925 9.90864 12.2656 9.59995 12.2656Z" fill="#DFEEF2"/>
<path d="M11.283 9.32672V11.5552C11.2829 11.7033 11.3416 11.8453 11.4463 11.95C11.551 12.0547 11.6931 12.1135 11.8412 12.1134V8.77277C11.6932 8.77049 11.5505 8.82798 11.4454 8.93224C11.3404 9.0365 11.2818 9.17872 11.283 9.32672Z" fill="#DFEEF2"/>
<path d="M11.2829 13.695V16.5239C11.2829 16.7861 11.5324 16.9975 11.8411 16.9975V13.2256C11.5324 13.2256 11.2829 13.437 11.2829 13.695Z" fill="#DFEEF2"/>
</svg>
