<svg width="40" height="40" viewBox="0 0 40 40" fill="none" xmlns="http://www.w3.org/2000/svg">
<circle cx="20" cy="20" r="20" fill="url(#paint0_linear)"/>
<path d="M6.15176 25V18.669H7.59476V19.475C7.77676 19.1543 8.04542 18.9117 8.40076 18.747C8.75609 18.5737 9.11142 18.487 9.46676 18.487C9.88276 18.487 10.2598 18.5823 10.5978 18.773C10.9358 18.955 11.1914 19.2323 11.3648 19.605C11.6161 19.189 11.9151 18.8987 12.2618 18.734C12.6171 18.5693 13.0028 18.487 13.4188 18.487C13.7048 18.487 13.9821 18.5347 14.2508 18.63C14.5194 18.7253 14.7578 18.8727 14.9658 19.072C15.1738 19.2627 15.3384 19.5097 15.4598 19.813C15.5898 20.1163 15.6548 20.476 15.6548 20.892V25H14.1988V21.139C14.1988 20.7663 14.0991 20.4587 13.8998 20.216C13.7091 19.9647 13.4014 19.839 12.9768 19.839C12.5781 19.839 12.2574 19.9777 12.0148 20.255C11.7808 20.5237 11.6638 20.853 11.6638 21.243V25H10.1818V21.139C10.1818 20.775 10.0864 20.4673 9.89576 20.216C9.70509 19.9647 9.39309 19.839 8.95976 19.839C8.55242 19.839 8.23176 19.9733 7.99776 20.242C7.76376 20.502 7.64676 20.8357 7.64676 21.243V25H6.15176ZM18.5154 21.815C18.5154 22.4217 18.667 22.9113 18.9704 23.284C19.2824 23.648 19.6984 23.83 20.2184 23.83C20.461 23.83 20.6864 23.7823 20.8944 23.687C21.1024 23.583 21.28 23.4443 21.4274 23.271C21.5747 23.089 21.6874 22.8767 21.7654 22.634C21.852 22.3827 21.8954 22.1053 21.8954 21.802C21.8954 21.1953 21.7394 20.7187 21.4274 20.372C21.124 20.0167 20.7254 19.839 20.2314 19.839C19.7374 19.839 19.3257 20.0167 18.9964 20.372C18.6757 20.7273 18.5154 21.2083 18.5154 21.815ZM23.3514 23.843C23.3514 24.129 23.36 24.3803 23.3774 24.597C23.3947 24.8137 23.4077 24.948 23.4164 25H21.9734C21.956 24.9307 21.9387 24.8093 21.9214 24.636C21.9127 24.4627 21.9084 24.311 21.9084 24.181C21.761 24.4497 21.527 24.6793 21.2064 24.87C20.8857 25.0607 20.5 25.156 20.0494 25.156C19.59 25.156 19.174 25.0737 18.8014 24.909C18.4287 24.7357 18.108 24.5017 17.8394 24.207C17.5794 23.9037 17.3757 23.5483 17.2284 23.141C17.081 22.7337 17.0074 22.2917 17.0074 21.815C17.0074 21.3643 17.081 20.9397 17.2284 20.541C17.3757 20.1337 17.5794 19.7783 17.8394 19.475C18.108 19.1717 18.4287 18.9333 18.8014 18.76C19.174 18.5867 19.5814 18.5 20.0234 18.5C20.3007 18.5 20.5434 18.5303 20.7514 18.591C20.9594 18.643 21.137 18.7167 21.2844 18.812C21.4404 18.8987 21.566 18.994 21.6614 19.098C21.7567 19.202 21.8304 19.306 21.8824 19.41V15.588H23.3514V23.843ZM25.3217 25V15.588H26.8037V19.449C26.951 19.1977 27.1937 18.9767 27.5317 18.786C27.8783 18.5953 28.2987 18.5 28.7927 18.5C29.2693 18.5 29.6897 18.5867 30.0537 18.76C30.4177 18.9247 30.721 19.1587 30.9637 19.462C31.215 19.7567 31.4013 20.1033 31.5227 20.502C31.6527 20.9007 31.7177 21.334 31.7177 21.802C31.7177 22.2787 31.6483 22.725 31.5097 23.141C31.371 23.5483 31.1717 23.9037 30.9117 24.207C30.6603 24.5017 30.3483 24.7357 29.9757 24.909C29.6117 25.0737 29.2 25.156 28.7407 25.156C28.29 25.156 27.8957 25.065 27.5577 24.883C27.2283 24.701 26.9727 24.4583 26.7907 24.155V25H25.3217ZM30.1967 21.815C30.1967 21.1823 30.0363 20.697 29.7157 20.359C29.4037 20.0123 28.9963 19.839 28.4937 19.839C28.0083 19.839 27.601 20.0123 27.2717 20.359C26.951 20.697 26.7907 21.1823 26.7907 21.815C26.7907 22.127 26.834 22.4087 26.9207 22.66C27.0073 22.9027 27.1243 23.1107 27.2717 23.284C27.4277 23.4573 27.6097 23.5917 27.8177 23.687C28.0257 23.7737 28.251 23.817 28.4937 23.817C28.9877 23.817 29.395 23.6393 29.7157 23.284C30.0363 22.9287 30.1967 22.439 30.1967 21.815ZM32.8476 24.025C32.8476 23.7303 32.9472 23.479 33.1466 23.271C33.3546 23.063 33.6059 22.959 33.9006 22.959C34.1952 22.959 34.4466 23.063 34.6546 23.271C34.8626 23.479 34.9666 23.7303 34.9666 24.025C34.9666 24.3197 34.8626 24.571 34.6546 24.779C34.4466 24.9783 34.1952 25.078 33.9006 25.078C33.6059 25.078 33.3546 24.9783 33.1466 24.779C32.9472 24.571 32.8476 24.3197 32.8476 24.025Z" fill="white"/>
<defs>
<linearGradient id="paint0_linear" x1="8" y1="5" x2="34" y2="37" gradientUnits="userSpaceOnUse">
<stop offset="0.187405" stop-color="#52C1AD"/>
<stop offset="1" stop-color="#4A93B5"/>
</linearGradient>
</defs>
</svg>
