<svg width="150" height="28" viewBox="0 0 150 28" fill="none" xmlns="http://www.w3.org/2000/svg">
<path d="M109.838 7.17389H123.673V20.4969H109.838V7.17389Z" fill="#023B60"/>
<path d="M64.4112 11.5667C64.9909 11.8629 65.469 12.3215 65.7857 12.885C66.1152 13.4635 66.2807 14.1549 66.2822 14.9593V19.019C66.2822 19.269 66.0769 19.4717 65.8236 19.4717C65.5704 19.4717 65.3651 19.269 65.3651 19.019V14.9597C65.3651 14.0042 65.0925 13.2751 64.5473 12.7724C64.0021 12.2696 63.2916 12.0183 62.4157 12.0183C61.9069 12.0121 61.4031 12.1182 60.941 12.3288C60.5198 12.5169 60.1581 12.8142 59.8941 13.1889C59.6429 13.5451 59.5095 13.9694 59.5122 14.4034V19.019C59.5163 19.1387 59.4724 19.2553 59.39 19.3432C59.3016 19.4314 59.1793 19.4781 59.0539 19.4714C58.9313 19.475 58.8127 19.4285 58.7261 19.3428C58.6395 19.2571 58.5926 19.14 58.5965 19.019V8.14041C58.5897 8.01657 58.637 7.8958 58.7263 7.80861C58.8154 7.72723 58.9335 7.68387 59.0548 7.68795C59.1794 7.67711 59.3024 7.72129 59.3909 7.8086C59.4793 7.89592 59.5241 8.01741 59.5131 8.14041V12.4539C59.8553 12.0345 60.2889 11.6967 60.7815 11.4656C61.2923 11.2266 61.8514 11.1052 62.4166 11.1107C63.1604 11.1119 63.8253 11.2639 64.4112 11.5667Z" fill="#023B60"/>
<path d="M75.3829 11.3919C75.4678 11.4797 75.5119 11.5972 75.5051 11.7173V18.9249C75.5092 19.0424 75.4653 19.1567 75.3829 19.243C75.2946 19.3295 75.1722 19.3753 75.0468 19.3687C74.9241 19.3725 74.8053 19.327 74.7185 19.2429C74.6316 19.1589 74.5846 19.0438 74.5885 18.9249V18.1544C74.2463 18.5657 73.8128 18.897 73.3202 19.1238C72.8095 19.3583 72.2504 19.4773 71.6852 19.4718C70.9415 19.4718 70.2768 19.3239 69.6912 19.0281C69.1108 18.7374 68.6323 18.2869 68.3159 17.7332C67.9846 17.1644 67.8192 16.486 67.8195 15.6979V11.7178C67.8195 11.4725 68.0247 11.2738 68.278 11.2738C68.5312 11.2738 68.7365 11.4725 68.7365 11.7178V15.6984C68.7365 16.6355 69.009 17.3507 69.5542 17.8438C70.0993 18.3369 70.8098 18.5834 71.6856 18.5834C72.1945 18.5896 72.6983 18.4855 73.1602 18.2788C73.5812 18.0947 73.9428 17.8037 74.2066 17.4365C74.4578 17.0871 74.5912 16.671 74.5885 16.2453V11.7178C74.5818 11.5963 74.6291 11.4778 74.7184 11.3923C74.8074 11.3125 74.9255 11.2699 75.0468 11.274C75.1708 11.2672 75.2922 11.3098 75.3829 11.3919Z" fill="#023B60"/>
<path d="M87.8508 11.717C88.3279 12.0193 88.7087 12.4476 88.9497 12.9528C89.2105 13.4808 89.3409 14.0802 89.3409 14.7509V19.0276C89.345 19.1451 89.3017 19.2594 89.2205 19.3457C89.1335 19.4322 89.013 19.4779 88.8895 19.4714C88.7686 19.4752 88.6516 19.4297 88.5661 19.3456C88.4806 19.2615 88.4342 19.1464 88.4381 19.0276V14.7492C88.4381 13.9897 88.2325 13.3681 87.8212 12.8845C87.4099 12.4009 86.8832 12.1591 86.2409 12.1591C85.5384 12.1591 84.9715 12.386 84.5402 12.8397C84.1089 13.2934 83.9032 13.8952 83.9233 14.6451V19.0276C83.9274 19.145 83.8841 19.2594 83.8029 19.3457C83.7159 19.4322 83.5955 19.4779 83.4719 19.4714C83.3511 19.4752 83.234 19.4297 83.1485 19.3456C83.063 19.2615 83.0167 19.1464 83.0205 19.0276V14.7492C83.0205 13.9897 82.8149 13.3681 82.4036 12.8845C81.9924 12.4009 81.4656 12.1591 80.8233 12.1591C80.1309 12.1591 79.564 12.3767 79.1226 12.8119C78.6813 13.247 78.46 13.8094 78.4588 14.4989V19.0276C78.4629 19.145 78.4196 19.2594 78.3385 19.3457C78.2515 19.4322 78.131 19.4779 78.0074 19.4714C77.8866 19.4752 77.7695 19.4297 77.684 19.3456C77.5985 19.2615 77.5522 19.1464 77.556 19.0276V11.8193C77.5494 11.6978 77.596 11.5793 77.6839 11.4938C77.7717 11.4139 77.8879 11.3714 78.0074 11.3754C78.1301 11.3648 78.2514 11.4081 78.3385 11.4938C78.4256 11.5794 78.4696 11.6986 78.4588 11.8193V12.3963C78.7354 12.0455 79.0909 11.7625 79.4975 11.5695C79.9099 11.372 80.3632 11.2707 80.822 11.2736C81.3738 11.2654 81.9167 11.4117 82.3872 11.6953C82.8519 11.9798 83.2312 12.3808 83.4861 12.8571C83.7462 12.3748 84.1369 11.9727 84.615 11.6953C85.1074 11.4112 85.6696 11.2654 86.2404 11.2736C86.8423 11.2721 87.3791 11.42 87.8508 11.717Z" fill="#023B60"/>
<path fill-rule="evenodd" clip-rule="evenodd" d="M98.5417 13.2826C98.1938 12.6661 97.6841 12.1564 97.0676 11.8085C96.4417 11.4514 95.7475 11.273 94.985 11.2733C94.2124 11.2733 93.5134 11.4517 92.8877 11.8085C92.2711 12.1563 91.7614 12.666 91.4136 13.2826C91.0568 13.9086 90.8784 14.6077 90.8784 15.38C90.8781 16.1428 91.0565 16.837 91.4136 17.4627C91.7612 18.0794 92.271 18.5892 92.8877 18.9368C93.5134 19.2936 94.2124 19.472 94.985 19.472C95.6791 19.4723 96.3073 19.3232 96.8697 19.0248C97.4141 18.7431 97.8726 18.32 98.1971 17.7999V18.9454C98.1934 19.0632 98.2385 19.1773 98.3218 19.2606C98.4052 19.344 98.5192 19.3891 98.637 19.3853C98.7574 19.3918 98.8748 19.3464 98.9596 19.2607C99.0387 19.1752 99.0809 19.0619 99.0769 18.9454V15.38C99.0769 14.6077 98.8985 13.9086 98.5417 13.2826ZM97.7771 17.0521C97.5078 17.5413 97.1095 17.9472 96.6256 18.2256H96.6277C95.606 18.7927 94.364 18.7927 93.3423 18.2256C92.8572 17.9462 92.4568 17.5407 92.1835 17.0521C91.6164 16.0095 91.6164 14.7505 92.1835 13.7079C92.6104 12.9564 93.3215 12.4079 94.1569 12.1859C94.9922 11.9638 95.8818 12.0867 96.6256 12.5271C97.1088 12.8097 97.5067 13.2177 97.7771 13.7079C98.3345 14.753 98.3345 16.0071 97.7771 17.0521Z" fill="#023B60"/>
<path d="M106.429 11.7206C107.009 12.0113 107.488 12.4617 107.804 13.015C108.134 13.5822 108.299 14.2601 108.301 15.0488V19.0278C108.301 19.2729 108.096 19.4716 107.842 19.4716C107.589 19.4716 107.384 19.2729 107.384 19.0278V15.0475C107.384 14.1106 107.111 13.3957 106.566 12.9028C106.021 12.4098 105.311 12.1634 104.435 12.1634C103.926 12.1573 103.422 12.2613 102.96 12.4678C102.539 12.6523 102.177 12.9437 101.914 13.3112C101.662 13.6605 101.529 14.0765 101.532 14.5021V19.0278C101.536 19.1452 101.492 19.2595 101.409 19.3457C101.321 19.4322 101.199 19.4779 101.073 19.4714C100.951 19.4752 100.832 19.4297 100.745 19.3456C100.658 19.2616 100.611 19.1465 100.615 19.0278V11.8228C100.608 11.7014 100.656 11.5829 100.745 11.4974C100.834 11.4176 100.952 11.3751 101.073 11.3791C101.198 11.3685 101.321 11.4118 101.409 11.4974C101.498 11.583 101.543 11.7022 101.532 11.8228V12.5905C101.874 12.1793 102.307 11.8481 102.8 11.6214C103.311 11.3871 103.87 11.2681 104.435 11.2734C105.179 11.2746 105.843 11.4236 106.429 11.7206Z" fill="#023B60"/>
<path d="M110.573 19.246C110.426 19.0994 110.346 18.8977 110.351 18.6887V8.48937C110.344 8.27771 110.424 8.07269 110.573 7.92456C110.792 7.69281 111.129 7.62247 111.42 7.74754C111.711 7.8726 111.897 8.16733 111.887 8.48937V18.6887C111.893 18.8963 111.815 19.0972 111.673 19.246C111.366 19.5474 110.88 19.5474 110.573 19.246Z" fill="white"/>
<path fill-rule="evenodd" clip-rule="evenodd" d="M113.426 18.6873C113.421 18.8966 113.501 19.0987 113.649 19.2455C113.794 19.3951 113.993 19.4771 114.2 19.4718H116.893C118.014 19.4718 119.011 19.2204 119.884 18.7175C120.744 18.227 121.451 17.4999 121.922 16.62C122.407 15.7246 122.649 14.7085 122.649 13.5717C122.648 12.4348 122.405 11.4212 121.919 10.5308C121.447 9.6542 120.74 8.93003 119.881 8.4409C119.009 7.93802 118.012 7.68658 116.891 7.68658H114.199C113.994 7.68143 113.796 7.76029 113.649 7.90533C113.499 8.0537 113.418 8.25906 113.426 8.47108V18.6873ZM119.1 17.5105C118.451 17.8927 117.714 18.0838 116.891 18.0838L114.972 18.0847V9.07717H116.891C117.714 9.07717 118.45 9.26826 119.1 9.65046C119.744 10.0271 120.27 10.5808 120.618 11.2479C120.98 11.9321 121.16 12.7068 121.16 13.5721C121.16 14.4373 120.98 15.2144 120.618 15.9034C120.273 16.5745 119.746 17.1319 119.1 17.5105Z" fill="white"/>
<path d="M41.6291 27.372C41.6291 27.372 26.6587 21.7162 29.8284 3.66453C29.8284 3.66453 34.683 0.730549 41.6762 0L41.6291 27.372Z" fill="#023B60"/>
<path d="M41.6291 27.372C41.6291 27.372 56.6112 21.7162 53.4357 3.66453C53.4357 3.66453 48.6695 0.730549 41.6762 0L41.6291 27.372Z" fill="#075070"/>
<path d="M46.8902 5.53799C46.6024 5.23117 46.1227 5.20932 45.8082 5.48869C45.4937 5.76806 45.4588 6.24706 45.7296 6.569C46.5648 7.51589 47.0439 8.72417 47.0847 9.98608L47.0788 17.9278C47.0786 18.1342 47.1605 18.332 47.3064 18.4779C47.4522 18.6238 47.6501 18.7057 47.8564 18.7055C48.0616 18.7056 48.2582 18.6232 48.4022 18.4771C48.5462 18.3309 48.6255 18.133 48.6223 17.9278L48.6282 9.9743C48.589 8.33708 47.9736 6.76616 46.8902 5.53799Z" fill="white"/>
<path d="M43.0136 4.90177C43.2847 4.97595 43.5746 4.89837 43.7724 4.69877C43.9702 4.49916 44.0452 4.20848 43.9685 3.93812C43.8919 3.66776 43.6756 3.45965 43.4025 3.39354C42.829 3.2466 42.2388 3.1753 41.6468 3.18144V4.73681C42.1078 4.72987 42.5675 4.78536 43.0136 4.90177Z" fill="white"/>
<path d="M41.6527 6.28621L41.6468 7.83568H41.6586C42.9435 7.83633 43.9851 8.87785 43.9857 10.1628C43.9857 10.5923 44.3339 10.9405 44.7634 10.9405C45.1929 10.9405 45.5411 10.5923 45.5411 10.1628C45.5346 8.01993 43.7956 6.2862 41.6527 6.28621V6.28621Z" fill="white"/>
<path d="M41.6468 24.0492L41.635 22.5056H41.6232C40.338 22.4969 39.301 21.452 39.302 20.1667C39.303 19.8899 39.1563 19.6336 38.9172 19.4943C38.678 19.355 38.3827 19.3538 38.1424 19.4913C37.9022 19.6288 37.7536 19.884 37.7525 20.1608C37.7525 22.3053 39.5082 24.0433 41.6468 24.0492Z" fill="#DFEEF2"/>
<path d="M44.7516 12.4959C44.3215 12.4959 43.9739 12.8906 43.9739 13.3737V20.3905C43.9739 20.8736 44.3215 21.2684 44.7516 21.2684C45.1817 21.2684 45.5293 20.8736 45.5293 20.3905V13.3737C45.5293 12.8906 45.1817 12.4959 44.7516 12.4959Z" fill="white"/>
<path d="M38.5278 10.9123C38.0977 10.9123 37.7501 11.3071 37.7501 11.7902V18.807C37.7501 19.2901 38.0977 19.6848 38.5278 19.6848C38.9579 19.6848 39.3055 19.2901 39.3055 18.807V11.789C39.3055 11.3071 38.9579 10.9123 38.5278 10.9123Z" fill="#DFEEF2"/>
<path d="M42.4245 13.2736V10.1688C42.4246 9.96249 42.3427 9.7646 42.1969 9.61872C42.051 9.47284 41.8531 9.39096 41.6468 9.39111V14.0454C41.8525 14.047 42.0503 13.9664 42.1963 13.8215C42.3423 13.6765 42.4245 13.4793 42.4245 13.2736Z" fill="white"/>
<path d="M42.4245 20.2021V16.2606C42.4245 15.8954 42.0769 15.6008 41.6468 15.6008V20.856C42.0769 20.856 42.4245 20.5615 42.4245 20.2021Z" fill="white"/>
<path d="M36.7155 5.22579C35.4007 6.53199 34.6626 8.30954 34.6653 10.1629C34.6653 10.5924 35.0135 10.9406 35.443 10.9406C35.8725 10.9406 36.2207 10.5924 36.2207 10.1629C36.2171 8.7215 36.7898 7.3385 37.8114 6.32161C38.8306 5.30238 40.2387 4.74857 41.6467 4.73679V3.18143C39.799 3.19229 38.029 3.92611 36.7155 5.22579Z" fill="#DFEEF2"/>
<path d="M38.2945 8.22462C38.0798 8.59555 38.2064 9.07034 38.5773 9.28509C38.9482 9.49984 39.423 9.37323 39.6378 9.0023C40.0521 8.2844 40.8179 7.842 41.6468 7.84167V6.2922C40.264 6.28972 38.9854 7.02677 38.2945 8.22462Z" fill="#DFEEF2"/>
<path d="M41.635 24.0491C42.2613 24.047 42.8778 23.8934 43.4319 23.6014C43.6771 23.4719 43.8346 23.2215 43.8451 22.9444C43.8556 22.6673 43.7175 22.4057 43.4828 22.2581C43.2481 22.1104 42.9524 22.0992 42.7072 22.2287C42.3731 22.4062 42.0014 22.5011 41.6232 22.5056" fill="white"/>
<path d="M35.443 12.4959C35.2367 12.4957 35.0388 12.5776 34.8929 12.7235C34.7471 12.8694 34.6652 13.0673 34.6653 13.2736V17.9279C34.6653 18.3574 35.0135 18.7056 35.443 18.7056C35.8725 18.7056 36.2207 18.3574 36.2207 17.9279V13.2736C36.2169 12.8457 35.8709 12.4997 35.443 12.4959Z" fill="#DFEEF2"/>
<path d="M38.5243 14.2634C38.0942 14.2634 37.7466 14.4342 37.7466 14.9191V20.1325C37.7466 20.6179 38.0942 21.2601 38.5243 21.2601C38.9543 21.2601 39.3019 20.8713 39.3019 20.3858V14.9256C39.3019 14.4401 38.9543 14.2634 38.5243 14.2634Z" fill="#DFEEF2"/>
<path d="M40.8691 10.1687V13.2736C40.8689 13.4799 40.9508 13.6778 41.0967 13.8237C41.2426 13.9695 41.4405 14.0514 41.6468 14.0513V9.39696C41.4406 9.39378 41.2418 9.47388 41.0955 9.61914C40.9491 9.7644 40.8675 9.96254 40.8691 10.1687Z" fill="#DFEEF2"/>
<path d="M40.8691 16.2547V20.1962C40.8691 20.5615 41.2167 20.856 41.6468 20.856V15.6008C41.2167 15.6008 40.8691 15.8954 40.8691 16.2547Z" fill="#DFEEF2"/>
</svg>
