<svg width="158" height="237" viewBox="0 0 158 237" fill="none" xmlns="http://www.w3.org/2000/svg">
<g opacity="0.05">
<path d="M138.291 26.6619C135.036 23.1912 129.608 22.9439 126.051 26.1042C122.493 29.2645 122.099 34.6831 125.162 38.325C134.609 49.0364 140.03 62.7047 140.491 76.9798L140.424 166.819C140.422 169.153 141.348 171.391 142.999 173.041C144.649 174.692 146.887 175.618 149.221 175.616C151.542 175.616 153.766 174.685 155.395 173.032C157.024 171.378 157.921 169.14 157.885 166.819L157.952 76.8465C157.508 58.3259 150.546 40.5553 138.291 26.6619Z" fill="#023B60"/>
<path d="M94.4381 19.4648C97.5042 20.304 100.785 19.4264 103.022 17.1684C105.26 14.9105 106.107 11.6222 105.24 8.56387C104.374 5.50551 101.926 3.15129 98.8367 2.40341C92.3495 0.7412 85.6727 -0.0653959 78.9762 0.00414048V17.5988C84.1907 17.5203 89.3919 18.148 94.4381 19.4648Z" fill="#023B60"/>
<path d="M79.0428 35.1258L78.9762 52.6537H79.1095C93.6455 52.6611 105.427 64.443 105.435 78.979C105.435 83.8376 109.373 87.7763 114.232 87.7763C119.091 87.7763 123.029 83.8376 123.029 78.979C122.956 54.738 103.284 35.1257 79.0428 35.1258V35.1258Z" fill="#023B60"/>
<path d="M78.976 236.064L78.8427 218.603H78.7094C64.1703 218.504 52.4395 206.684 52.4508 192.145C52.4627 189.013 50.8033 186.114 48.0977 184.538C45.3921 182.962 42.0513 182.949 39.3337 184.505C36.6162 186.06 34.9348 188.947 34.9229 192.078C34.9229 216.337 54.7834 235.998 78.976 236.064Z" fill="#023B60"/>
<path d="M114.099 105.372C109.233 105.372 105.301 109.837 105.301 115.302V194.678C105.301 200.143 109.233 204.608 114.099 204.608C118.964 204.608 122.896 200.143 122.896 194.678V115.302C122.896 109.837 118.964 105.372 114.099 105.372Z" fill="#023B60"/>
<path d="M43.6935 87.4576C38.8283 87.4576 34.8962 91.9229 34.8962 97.3879V176.764C34.8962 182.229 38.8283 186.694 43.6935 186.694C48.5587 186.694 52.4908 182.229 52.4908 176.764V97.3746C52.4908 91.9229 48.5587 87.4576 43.6935 87.4576Z" fill="#023B60"/>
<path d="M87.7734 114.169V79.0466C87.7752 76.7129 86.8489 74.4742 85.1987 72.824C83.5485 71.1738 81.3099 70.2475 78.9762 70.2493V122.9C81.3032 122.918 83.541 122.006 85.1928 120.366C86.8445 118.727 87.7735 116.496 87.7734 114.169Z" fill="#023B60"/>
<path d="M87.7734 192.546V147.96C87.7734 143.828 83.8413 140.495 78.9762 140.495V199.944C83.8413 199.944 87.7734 196.612 87.7734 192.546Z" fill="#023B60"/>
<path d="M23.193 23.1305C8.31961 37.9066 -0.0307326 58.0146 8.49991e-05 78.98C8.49991e-05 83.8386 3.93877 87.7773 8.79738 87.7773C13.656 87.7773 17.5947 83.8386 17.5947 78.98C17.5547 62.6748 24.0334 47.0299 35.5891 35.5267C47.1189 23.9969 63.0474 17.7321 78.9758 17.5988V0.00424194C58.0739 0.127105 38.0507 8.42825 23.193 23.1305Z" fill="#023B60"/>
<path d="M41.0542 57.0534C38.6249 61.2495 40.0571 66.6205 44.2532 69.0498C48.4493 71.4791 53.8202 70.0468 56.2495 65.8507C60.9366 57.7297 69.5993 52.7252 78.9759 52.7214V35.1935C63.3333 35.1654 48.8695 43.5031 41.0542 57.0534Z" fill="#023B60"/>
<path d="M78.8425 236.064C85.9276 236.04 92.9016 234.302 99.1696 230.999C101.944 229.534 103.726 226.701 103.844 223.567C103.963 220.433 102.401 217.473 99.7456 215.803C97.0905 214.133 93.7461 214.006 90.9721 215.47C87.1931 217.478 82.9883 218.552 78.7092 218.603" fill="#023B60"/>
<path d="M8.79762 105.372C6.46389 105.37 4.22524 106.296 2.57504 107.947C0.924843 109.597 -0.00144321 111.835 0.000326781 114.169V166.82C0.000326781 171.678 3.93901 175.617 8.79762 175.617C13.6562 175.617 17.5949 171.678 17.5949 166.82V114.169C17.5515 109.329 13.6381 105.415 8.79762 105.372Z" fill="#023B60"/>
<path d="M43.6535 125.365C38.7883 125.365 34.8562 127.298 34.8562 132.783V191.758C34.8562 197.25 38.7883 204.514 43.6535 204.514C48.5187 204.514 52.4508 200.116 52.4508 194.624V132.856C52.4508 127.365 48.5187 125.365 43.6535 125.365Z" fill="#023B60"/>
<path d="M70.1787 79.0464V114.169C70.1769 116.503 71.1032 118.741 72.7534 120.392C74.4036 122.042 76.6423 122.968 78.976 122.966V70.3157C76.6435 70.2797 74.3951 71.1858 72.7394 72.8291C71.0836 74.4723 70.1605 76.7137 70.1787 79.0464Z" fill="#023B60"/>
<path d="M70.1787 147.893V192.479C70.1787 196.612 74.1109 199.944 78.976 199.944V140.495C74.1109 140.495 70.1787 143.828 70.1787 147.893Z" fill="#023B60"/>
</g>
</svg>
